<svg baseProfile="full" fill="currentColor" font-family="'Helvetica Neue', Inter, system-ui, sans-serif" height="218px" version="1.1" viewBox="0 0 550 218" width="550px" xmlns="http://www.w3.org/2000/svg" xmlns:ev="http://www.w3.org/2001/xml-events" xmlns:xlink="http://www.w3.org/1999/xlink"><defs /><g><text font-size="12px" font-weight="bold" x="16" y="24">In the HTML</text><rect fill="var(--dl-cell-bg)" height="36" rx="4" stroke="currentColor" stroke-width="1" width="150" x="16" y="42" /><text font-size="12px" x="28" y="64.0">1  Squid</text><rect fill="var(--dl-cell-bg)" height="36" rx="4" stroke="currentColor" stroke-width="1" width="150" x="16" y="86" /><text font-size="12px" x="28" y="108.0">2  Cuttlefish</text><rect fill="var(--dl-cell-bg)" height="36" rx="4" stroke="currentColor" stroke-width="1" width="150" x="16" y="130" /><text font-size="12px" x="28" y="152.0">3  Nautilus</text><text font-size="12px" font-weight="bold" x="222" y="24">On screen</text><rect fill="var(--dl-highlight-bg)" height="36" rx="4" stroke="currentColor" stroke-width="1.6" width="96" x="222" y="118" /><text font-size="12px" text-anchor="middle" x="270.0" y="140.0">Nautilus</text><rect fill="var(--dl-cell-bg)" height="36" rx="4" stroke="currentColor" stroke-width="1" width="96" x="330" y="118" /><text font-size="12px" text-anchor="middle" x="378.0" y="140.0">Squid</text><rect fill="var(--dl-cell-bg)" height="36" rx="4" stroke="currentColor" stroke-width="1" width="96" x="438" y="118" /><text font-size="12px" text-anchor="middle" x="486.0" y="140.0">Cuttlefish</text><text fill="var(--dl-muted)" font-family="'SF Mono', 'Cascadia Mono', Menlo, Consolas, monospace" font-size="10.5px" text-anchor="middle" x="270.0" y="170">order: -1</text><circle cx="378.0" cy="92" fill="var(--dl-highlight-green)" r="10" stroke="currentColor" stroke-width="1" /><text font-size="10.5px" font-weight="bold" text-anchor="middle" x="378.0" y="96">1</text><circle cx="486.0" cy="92" fill="var(--dl-highlight-green)" r="10" stroke="currentColor" stroke-width="1" /><text font-size="10.5px" font-weight="bold" text-anchor="middle" x="486.0" y="96">2</text><circle cx="270.0" cy="92" fill="var(--dl-highlight-green)" r="10" stroke="currentColor" stroke-width="1" /><text font-size="10.5px" font-weight="bold" text-anchor="middle" x="270.0" y="96">3</text><line stroke="currentColor" stroke-width="1.4" x1="390.0" x2="474.0" y1="92" y2="92" /><polygon fill="currentColor" points="474.0,92 467.0,88.5 467.0,95.5" /><path d="M 486.0 82 C 486.0 48 270.0 48 270.0 76" fill="none" stroke="currentColor" stroke-dasharray="5 3" stroke-width="1.4" /><line stroke="currentColor" stroke-width="1.4" x1="270.0" x2="270.0" y1="74" y2="81" /><polygon fill="currentColor" points="270.0,81 273.5,74.0 266.5,74.0" /><text fill="currentColor" font-family="'Helvetica Neue', Inter, system-ui, sans-serif" font-size="12px" text-anchor="middle" x="378.0" y="204">Tab follows the HTML, not the screen</text></g></svg>