<svg baseProfile="full" fill="currentColor" font-family="'Helvetica Neue', Inter, system-ui, sans-serif" height="330px" version="1.1" viewBox="0 0 554 330" width="554px" xmlns="http://www.w3.org/2000/svg" xmlns:ev="http://www.w3.org/2001/xml-events" xmlns:xlink="http://www.w3.org/1999/xlink"><defs /><g><circle cx="137.0" cy="116" fill="none" r="74" stroke="var(--dl-muted)" stroke-dasharray="4 3" stroke-width="1.2" /><circle cx="137.0" cy="116" fill="var(--dl-highlight-bg)" r="15" stroke="currentColor" stroke-width="1.2" /><text fill="currentColor" font-family="'Helvetica Neue', Inter, system-ui, sans-serif" font-size="10.5px" font-weight="normal" text-anchor="middle" x="137.0" y="120">sun</text><line stroke="currentColor" stroke-linecap="round" stroke-width="3.4" x1="124.0" x2="150.0" y1="190.0" y2="190.0" /><line stroke="currentColor" stroke-linecap="round" stroke-width="3.4" x1="180.1335136523794" x2="198.51828996322962" y1="177.51828996322962" y2="159.1335136523794" /><line stroke="currentColor" stroke-linecap="round" stroke-width="5" x1="211.0" x2="211.0" y1="129.0" y2="103.0" /><line stroke="currentColor" stroke-linecap="round" stroke-width="3.4" x1="198.51828996322962" x2="180.1335136523794" y1="72.86648634762061" y2="54.481710036770366" /><line stroke="currentColor" stroke-linecap="round" stroke-width="3.4" x1="150.0" x2="124.0" y1="42.0" y2="42.0" /><line stroke="currentColor" stroke-linecap="round" stroke-width="3.4" x1="93.86648634762061" x2="75.48171003677037" y1="54.48171003677035" y2="72.8664863476206" /><line stroke="currentColor" stroke-linecap="round" stroke-width="5" x1="63.0" x2="63.0" y1="102.99999999999999" y2="129.0" /><line stroke="currentColor" stroke-linecap="round" stroke-width="3.4" x1="75.48171003677035" x2="93.8664863476206" y1="159.1335136523794" y2="177.51828996322962" /><path d="M 167.8 200.6 A 90 90 0 0 0 210.7 167.6" fill="none" stroke="currentColor" stroke-width="1.2" /><polygon fill="currentColor" points="210.72368398600926,167.62187927159414 209.602477650616,174.53150273119553 204.61423696014148,171.03869899732086" /><path d="M 137.0 246 Q 126.0 234 137.0 222 Q 148.0 234 137.0 246 Z" fill="none" stroke="currentColor" stroke-width="1.6" /><path d="M 125.0 234 Q 137.0 223 149.0 234 Q 137.0 245 125.0 234 Z" fill="none" stroke="currentColor" stroke-width="1.6" /><circle cx="137.0" cy="234" fill="currentColor" r="4" /><text fill="currentColor" font-family="'Helvetica Neue', Inter, system-ui, sans-serif" font-size="12px" font-weight="normal" text-anchor="middle" x="137.0" y="262">you</text><text fill="currentColor" font-family="'Helvetica Neue', Inter, system-ui, sans-serif" font-size="12px" font-weight="normal" text-anchor="middle" x="137.0" y="300">carried round, never turned back</text><text fill="var(--dl-muted)" font-family="'Helvetica Neue', Inter, system-ui, sans-serif" font-size="10.5px" font-weight="normal" text-anchor="middle" x="137.0" y="318">at the sides, only its edge faces you</text><circle cx="417.0" cy="116" fill="none" r="74" stroke="var(--dl-muted)" stroke-dasharray="4 3" stroke-width="1.2" /><circle cx="417.0" cy="116" fill="var(--dl-highlight-bg)" r="15" stroke="currentColor" stroke-width="1.2" /><text fill="currentColor" font-family="'Helvetica Neue', Inter, system-ui, sans-serif" font-size="10.5px" font-weight="normal" text-anchor="middle" x="417.0" y="120">sun</text><line stroke="currentColor" stroke-linecap="round" stroke-width="3.4" x1="404.0" x2="430.0" y1="190.0" y2="190.0" /><line stroke="currentColor" stroke-linecap="round" stroke-width="3.4" x1="456.3259018078045" x2="482.3259018078045" y1="168.3259018078045" y2="168.3259018078045" /><line stroke="currentColor" stroke-linecap="round" stroke-width="3.4" x1="478.0" x2="504.0" y1="116.0" y2="116.0" /><line stroke="currentColor" stroke-linecap="round" stroke-width="3.4" x1="456.32590180780454" x2="482.32590180780454" y1="63.67409819219549" y2="63.67409819219549" /><line stroke="currentColor" stroke-linecap="round" stroke-width="3.4" x1="404.0" x2="430.0" y1="42.0" y2="42.0" /><line stroke="currentColor" stroke-linecap="round" stroke-width="3.4" x1="351.6740981921955" x2="377.6740981921955" y1="63.67409819219547" y2="63.67409819219547" /><line stroke="currentColor" stroke-linecap="round" stroke-width="3.4" x1="330.0" x2="356.0" y1="115.99999999999999" y2="115.99999999999999" /><line stroke="currentColor" stroke-linecap="round" stroke-width="3.4" x1="351.67409819219546" x2="377.67409819219546" y1="168.3259018078045" y2="168.3259018078045" /><path d="M 447.8 200.6 A 90 90 0 0 0 490.7 167.6" fill="none" stroke="currentColor" stroke-width="1.2" /><polygon fill="currentColor" points="490.7236839860093,167.62187927159414 489.60247765061604,174.53150273119553 484.6142369601415,171.03869899732086" /><path d="M 417.0 246 Q 406.0 234 417.0 222 Q 428.0 234 417.0 246 Z" fill="none" stroke="currentColor" stroke-width="1.6" /><path d="M 405.0 234 Q 417.0 223 429.0 234 Q 417.0 245 405.0 234 Z" fill="none" stroke="currentColor" stroke-width="1.6" /><circle cx="417.0" cy="234" fill="currentColor" r="4" /><text fill="currentColor" font-family="'Helvetica Neue', Inter, system-ui, sans-serif" font-size="12px" font-weight="normal" text-anchor="middle" x="417.0" y="262">you</text><text fill="currentColor" font-family="'Helvetica Neue', Inter, system-ui, sans-serif" font-size="12px" font-weight="normal" text-anchor="middle" x="417.0" y="300">turned back each time</text><text fill="var(--dl-muted)" font-family="'Helvetica Neue', Inter, system-ui, sans-serif" font-size="10.5px" font-weight="normal" text-anchor="middle" x="417.0" y="318">it always faces you</text></g></svg>