<svg baseProfile="full" fill="currentColor" font-family="'Helvetica Neue', Inter, system-ui, sans-serif" height="198px" version="1.1" viewBox="0 0 650 198" width="650px" xmlns="http://www.w3.org/2000/svg" xmlns:ev="http://www.w3.org/2001/xml-events" xmlns:xlink="http://www.w3.org/1999/xlink"><defs /><polygon fill="var(--dl-highlight-blue)" points="70.0,30 154.0,30 70.0,138.0" stroke="currentColor" stroke-width="1.6" /><polygon fill="var(--dl-highlight-green)" points="154.0,30 310.0,30 310.0,138.0" stroke="currentColor" stroke-width="1.6" /><polygon fill="var(--dl-highlight-bg)" points="70.0,138.0 310.0,138.0 154.0,30" stroke="currentColor" stroke-width="1.6" /><text fill="currentColor" font-size="14px" font-weight="bold" text-anchor="middle" x="95.2" y="65.64">1</text><text fill="currentColor" font-size="14px" font-weight="bold" text-anchor="middle" x="263.2" y="65.64">2</text><text fill="currentColor" font-size="13px" text-anchor="middle" x="208.6" y="116.4">the triangle</text><line stroke="currentColor" stroke-dasharray="4,3" stroke-width="1.2" x1="154.0" x2="154.0" y1="30" y2="138.0" /><text fill="currentColor" font-size="12px" text-anchor="start" x="159.0" y="75.36">height</text><line stroke="currentColor" stroke-width="1.2" x1="60" x2="60" y1="30" y2="138.0" /><line stroke="currentColor" stroke-width="1.2" x1="55" x2="65" y1="30" y2="30" /><line stroke="currentColor" stroke-width="1.2" x1="55" x2="65" y1="138.0" y2="138.0" /><text fill="currentColor" font-size="13px" text-anchor="end" x="54" y="89.0">1.8 m</text><text fill="currentColor" font-size="13px" text-anchor="middle" x="190.0" y="160.0">base 4 m</text><polygon fill="var(--dl-highlight-blue)" points="444.0,138.0 360,138.0 444.0,30" stroke="currentColor" stroke-width="1.6" /><polygon fill="var(--dl-highlight-green)" points="600,138.0 444.0,138.0 444.0,30" stroke="currentColor" stroke-width="1.6" /><text fill="currentColor" font-size="14px" font-weight="bold" text-anchor="middle" x="418.8" y="111.0">1</text><text fill="currentColor" font-size="14px" font-weight="bold" text-anchor="middle" x="483.0" y="111.0">2</text><text fill="currentColor" font-size="13px" text-anchor="middle" x="480.0" y="160.0">pieces 1 and 2, turned round:</text><text fill="currentColor" font-size="13px" text-anchor="middle" x="480.0" y="178.0">the same triangle again</text></svg>