<svg baseProfile="full" fill="currentColor" font-family="'Helvetica Neue', Inter, system-ui, sans-serif" height="305px" version="1.1" viewBox="0 0 525 305" width="525px" xmlns="http://www.w3.org/2000/svg" xmlns:ev="http://www.w3.org/2001/xml-events" xmlns:xlink="http://www.w3.org/1999/xlink"><defs /><g transform="translate(14,14)"><polyline fill="none" points="208.79,130.5 219.79,130.5 219.79,52.0 286.39,52.0" stroke="currentColor" stroke-linejoin="round" stroke-width="1.6" /><line stroke="currentColor" stroke-linecap="round" stroke-width="2.0" x1="215.79" x2="215.79" y1="123.5" y2="137.5" /><line stroke="currentColor" stroke-linecap="round" stroke-width="1.6" x1="286.39" x2="300.78999999999996" y1="52.0" y2="44.35" /><line stroke="currentColor" stroke-linecap="round" stroke-width="1.6" x1="286.39" x2="300.78999999999996" y1="52.0" y2="52.0" /><line stroke="currentColor" stroke-linecap="round" stroke-width="1.6" x1="286.39" x2="300.78999999999996" y1="52.0" y2="59.65" /><polyline fill="none" points="208.79,36.5 230.79,36.5 230.79,73.0 286.39,73.0" stroke="currentColor" stroke-linejoin="round" stroke-width="1.6" /><line stroke="currentColor" stroke-linecap="round" stroke-width="2.0" x1="215.79" x2="215.79" y1="29.5" y2="43.5" /><line stroke="currentColor" stroke-linecap="round" stroke-width="1.6" x1="286.39" x2="300.78999999999996" y1="73.0" y2="65.35" /><line stroke="currentColor" stroke-linecap="round" stroke-width="1.6" x1="286.39" x2="300.78999999999996" y1="73.0" y2="73.0" /><line stroke="currentColor" stroke-linecap="round" stroke-width="1.6" x1="286.39" x2="300.78999999999996" y1="73.0" y2="80.65" /><polyline fill="none" points="208.79,130.5 241.79,130.5 241.79,167.0 286.39,167.0" stroke="currentColor" stroke-linejoin="round" stroke-width="1.6" /><line stroke="currentColor" stroke-linecap="round" stroke-width="2.0" x1="215.79" x2="215.79" y1="123.5" y2="137.5" /><line stroke="currentColor" stroke-linecap="round" stroke-width="1.6" x1="286.39" x2="300.78999999999996" y1="167.0" y2="159.35" /><line stroke="currentColor" stroke-linecap="round" stroke-width="1.6" x1="286.39" x2="300.78999999999996" y1="167.0" y2="167.0" /><line stroke="currentColor" stroke-linecap="round" stroke-width="1.6" x1="286.39" x2="300.78999999999996" y1="167.0" y2="174.65" /><polyline fill="none" points="208.79,245.5 252.79,245.5 252.79,188.0 286.39,188.0" stroke="currentColor" stroke-linejoin="round" stroke-width="1.6" /><line stroke="currentColor" stroke-linecap="round" stroke-width="2.0" x1="215.79" x2="215.79" y1="238.5" y2="252.5" /><line stroke="currentColor" stroke-linecap="round" stroke-width="1.6" x1="286.39" x2="300.78999999999996" y1="188.0" y2="180.35" /><line stroke="currentColor" stroke-linecap="round" stroke-width="1.6" x1="286.39" x2="300.78999999999996" y1="188.0" y2="188.0" /><line stroke="currentColor" stroke-linecap="round" stroke-width="1.6" x1="286.39" x2="300.78999999999996" y1="188.0" y2="195.65" /><rect fill="var(--dl-cell-bg)" height="26" stroke="none" width="208.79" x="0.0" y="0.0" /><rect fill="none" height="68" rx="4" stroke="currentColor" stroke-width="1.3" width="208.79" x="0.0" y="0.0" /><line stroke="currentColor" stroke-width="1.3" x1="0.0" x2="208.79" y1="26.0" y2="26.0" /><text fill="currentColor" font-size="12.5px" font-weight="bold" text-anchor="middle" x="104.395" y="17.0">authors</text><text fill="currentColor" font-family="'SF Mono', 'Cascadia Mono', Menlo, Consolas, monospace" font-size="10.5px" x="10.0" y="40.0">id</text><text fill="var(--dl-muted)" font-size="10.0px" text-anchor="end" x="198.79" y="40.0">integer PK</text><line stroke="var(--dl-rule)" stroke-width="0.8" x1="1.0" x2="207.79" y1="47.0" y2="47.0" /><text fill="currentColor" font-family="'SF Mono', 'Cascadia Mono', Menlo, Consolas, monospace" font-size="10.5px" x="10.0" y="61.0">name</text><text fill="var(--dl-muted)" font-size="10.0px" text-anchor="end" x="198.79" y="61.0">text</text><rect fill="var(--dl-cell-bg)" height="26" stroke="none" width="208.79" x="0.0" y="94.0" /><rect fill="none" height="89" rx="4" stroke="currentColor" stroke-width="1.3" width="208.79" x="0.0" y="94.0" /><line stroke="currentColor" stroke-width="1.3" x1="0.0" x2="208.79" y1="120.0" y2="120.0" /><text fill="currentColor" font-size="12.5px" font-weight="bold" text-anchor="middle" x="104.395" y="111.0">books</text><text fill="currentColor" font-family="'SF Mono', 'Cascadia Mono', Menlo, Consolas, monospace" font-size="10.5px" x="10.0" y="134.0">id</text><text fill="var(--dl-muted)" font-size="10.0px" text-anchor="end" x="198.79" y="134.0">integer PK</text><line stroke="var(--dl-rule)" stroke-width="0.8" x1="1.0" x2="207.79" y1="141.0" y2="141.0" /><text fill="currentColor" font-family="'SF Mono', 'Cascadia Mono', Menlo, Consolas, monospace" font-size="10.5px" x="10.0" y="155.0">title</text><text fill="var(--dl-muted)" font-size="10.0px" text-anchor="end" x="198.79" y="155.0">text</text><line stroke="var(--dl-rule)" stroke-width="0.8" x1="1.0" x2="207.79" y1="162.0" y2="162.0" /><text fill="currentColor" font-family="'SF Mono', 'Cascadia Mono', Menlo, Consolas, monospace" font-size="10.5px" x="10.0" y="176.0">publication_year</text><text fill="var(--dl-muted)" font-size="10.0px" text-anchor="end" x="198.79" y="176.0">integer</text><rect fill="var(--dl-cell-bg)" height="26" stroke="none" width="208.79" x="0.0" y="209.0" /><rect fill="none" height="68" rx="4" stroke="currentColor" stroke-width="1.3" width="208.79" x="0.0" y="209.0" /><line stroke="currentColor" stroke-width="1.3" x1="0.0" x2="208.79" y1="235.0" y2="235.0" /><text fill="currentColor" font-size="12.5px" font-weight="bold" text-anchor="middle" x="104.395" y="226.0">members</text><text fill="currentColor" font-family="'SF Mono', 'Cascadia Mono', Menlo, Consolas, monospace" font-size="10.5px" x="10.0" y="249.0">id</text><text fill="var(--dl-muted)" font-size="10.0px" text-anchor="end" x="198.79" y="249.0">integer PK</text><line stroke="var(--dl-rule)" stroke-width="0.8" x1="1.0" x2="207.79" y1="256.0" y2="256.0" /><text fill="currentColor" font-family="'SF Mono', 'Cascadia Mono', Menlo, Consolas, monospace" font-size="10.5px" x="10.0" y="270.0">name</text><text fill="var(--dl-muted)" font-size="10.0px" text-anchor="end" x="198.79" y="270.0">text</text><rect fill="var(--dl-cell-bg)" height="26" stroke="none" width="195.77" x="300.78999999999996" y="15.5" /><rect fill="none" height="68" rx="4" stroke="currentColor" stroke-width="1.3" width="195.77" x="300.78999999999996" y="15.5" /><line stroke="currentColor" stroke-width="1.3" x1="300.78999999999996" x2="496.55999999999995" y1="41.5" y2="41.5" /><text fill="currentColor" font-size="12.5px" font-weight="bold" text-anchor="middle" x="398.67499999999995" y="32.5">book_authors</text><text fill="currentColor" font-family="'SF Mono', 'Cascadia Mono', Menlo, Consolas, monospace" font-size="10.5px" x="310.78999999999996" y="55.5">book_id</text><text fill="var(--dl-muted)" font-size="10.0px" text-anchor="end" x="486.55999999999995" y="55.5">integer PK FK</text><line stroke="var(--dl-rule)" stroke-width="0.8" x1="301.78999999999996" x2="495.55999999999995" y1="62.5" y2="62.5" /><text fill="currentColor" font-family="'SF Mono', 'Cascadia Mono', Menlo, Consolas, monospace" font-size="10.5px" x="310.78999999999996" y="76.5">author_id</text><text fill="var(--dl-muted)" font-size="10.0px" text-anchor="end" x="486.55999999999995" y="76.5">integer PK FK</text><rect fill="var(--dl-cell-bg)" height="26" stroke="none" width="195.77" x="300.78999999999996" y="109.5" /><rect fill="none" height="152" rx="4" stroke="currentColor" stroke-width="1.3" width="195.77" x="300.78999999999996" y="109.5" /><line stroke="currentColor" stroke-width="1.3" x1="300.78999999999996" x2="496.55999999999995" y1="135.5" y2="135.5" /><text fill="currentColor" font-size="12.5px" font-weight="bold" text-anchor="middle" x="398.67499999999995" y="126.5">loans</text><text fill="currentColor" font-family="'SF Mono', 'Cascadia Mono', Menlo, Consolas, monospace" font-size="10.5px" x="310.78999999999996" y="149.5">id</text><text fill="var(--dl-muted)" font-size="10.0px" text-anchor="end" x="486.55999999999995" y="149.5">integer PK</text><line stroke="var(--dl-rule)" stroke-width="0.8" x1="301.78999999999996" x2="495.55999999999995" y1="156.5" y2="156.5" /><text fill="currentColor" font-family="'SF Mono', 'Cascadia Mono', Menlo, Consolas, monospace" font-size="10.5px" x="310.78999999999996" y="170.5">book_id</text><text fill="var(--dl-muted)" font-size="10.0px" text-anchor="end" x="486.55999999999995" y="170.5">integer FK</text><line stroke="var(--dl-rule)" stroke-width="0.8" x1="301.78999999999996" x2="495.55999999999995" y1="177.5" y2="177.5" /><text fill="currentColor" font-family="'SF Mono', 'Cascadia Mono', Menlo, Consolas, monospace" font-size="10.5px" x="310.78999999999996" y="191.5">member_id</text><text fill="var(--dl-muted)" font-size="10.0px" text-anchor="end" x="486.55999999999995" y="191.5">integer FK</text><line stroke="var(--dl-rule)" stroke-width="0.8" x1="301.78999999999996" x2="495.55999999999995" y1="198.5" y2="198.5" /><text fill="currentColor" font-family="'SF Mono', 'Cascadia Mono', Menlo, Consolas, monospace" font-size="10.5px" x="310.78999999999996" y="212.5">borrowed_date</text><text fill="var(--dl-muted)" font-size="10.0px" text-anchor="end" x="486.55999999999995" y="212.5">text</text><line stroke="var(--dl-rule)" stroke-width="0.8" x1="301.78999999999996" x2="495.55999999999995" y1="219.5" y2="219.5" /><text fill="currentColor" font-family="'SF Mono', 'Cascadia Mono', Menlo, Consolas, monospace" font-size="10.5px" x="310.78999999999996" y="233.5">due_date</text><text fill="var(--dl-muted)" font-size="10.0px" text-anchor="end" x="486.55999999999995" y="233.5">text</text><line stroke="var(--dl-rule)" stroke-width="0.8" x1="301.78999999999996" x2="495.55999999999995" y1="240.5" y2="240.5" /><text fill="currentColor" font-family="'SF Mono', 'Cascadia Mono', Menlo, Consolas, monospace" font-size="10.5px" x="310.78999999999996" y="254.5">returned_date</text><text fill="var(--dl-muted)" font-size="10.0px" text-anchor="end" x="486.55999999999995" y="254.5">text</text></g></svg>