<svg baseProfile="full" fill="currentColor" font-family="'Helvetica Neue', Inter, system-ui, sans-serif" height="414px" version="1.1" viewBox="0 0 620 414" width="620px" xmlns="http://www.w3.org/2000/svg" xmlns:ev="http://www.w3.org/2001/xml-events" xmlns:xlink="http://www.w3.org/1999/xlink"><defs /><line stroke="var(--dl-muted)" stroke-linecap="round" stroke-width="1.1" x1="110.0" x2="470.0" y1="201.0" y2="201.0" /><polygon fill="var(--dl-muted)" points="470.0,201.0 464.52,203.45 464.52,198.55" stroke="none" /><line stroke="var(--dl-muted)" stroke-linecap="round" stroke-width="1.1" x1="290.0" x2="290.0" y1="381.0" y2="21.0" /><polygon fill="var(--dl-muted)" points="290.0,21.0 292.45,26.48 287.55,26.48" stroke="none" /><text fill="var(--dl-muted)" font-size="11.5px" text-anchor="start" x="478.0" y="199.0">real part:</text><text fill="var(--dl-muted)" font-size="11.5px" text-anchor="start" x="478.0" y="214.0">across</text><text fill="var(--dl-muted)" font-size="11.5px" text-anchor="start" x="16" y="398.0">Each arrow is one × 1j: a quarter turn, against the clock.</text><text fill="var(--dl-muted)" font-size="11.5px" text-anchor="start" x="298.0" y="25.0">imaginary part: up</text><circle cx="410.0" cy="201.0" fill="var(--dl-highlight-bg)" r="6" stroke="currentColor" stroke-width="1.4" /><text fill="currentColor" font-size="14px" text-anchor="start" x="420.0" y="191.0">1</text><circle cx="290.0" cy="81.0" fill="var(--dl-highlight-bg)" r="6" stroke="currentColor" stroke-width="1.4" /><text fill="currentColor" font-size="14px" text-anchor="start" x="300.0" y="73.0">i, or 1j</text><circle cx="170.0" cy="201.0" fill="var(--dl-highlight-bg)" r="6" stroke="currentColor" stroke-width="1.4" /><text fill="currentColor" font-size="14px" text-anchor="end" x="160.0" y="191.0">−1</text><circle cx="290.0" cy="321.0" fill="var(--dl-highlight-bg)" r="6" stroke="currentColor" stroke-width="1.4" /><text fill="currentColor" font-size="14px" text-anchor="start" x="300.0" y="339.0">−i, or −1j</text><path d="M 408.47 181.88 Q 394.66 96.34 309.12 82.53" fill="none" stroke="currentColor" stroke-width="1.6" /><polygon fill="currentColor" points="309.12,82.53 316.85,80.48 315.81,86.92" stroke="none" /><text fill="var(--dl-muted)" font-size="11.5px" text-anchor="start" x="386.73" y="108.27">× 1j</text><path d="M 270.88 82.53 Q 185.34 96.34 171.53 181.88" fill="none" stroke="currentColor" stroke-width="1.6" /><polygon fill="currentColor" points="171.53,181.88 169.48,174.15 175.92,175.19" stroke="none" /><text fill="var(--dl-muted)" font-size="11.5px" text-anchor="end" x="193.27" y="108.27">× 1j</text><path d="M 171.53 220.12 Q 185.34 305.66 270.88 319.47" fill="none" stroke="currentColor" stroke-width="1.6" /><polygon fill="currentColor" points="270.88,319.47 263.15,321.52 264.19,315.08" stroke="none" /><text fill="var(--dl-muted)" font-size="11.5px" text-anchor="end" x="193.27" y="301.73">× 1j</text><path d="M 309.12 319.47 Q 394.66 305.66 408.47 220.12" fill="none" stroke="currentColor" stroke-width="1.6" /><polygon fill="currentColor" points="408.47,220.12 410.52,227.85 404.08,226.81" stroke="none" /><text fill="var(--dl-muted)" font-size="11.5px" text-anchor="start" x="386.73" y="301.73">× 1j</text></svg>