<svg baseProfile="full" fill="currentColor" font-family="'Helvetica Neue', Inter, system-ui, sans-serif" height="180px" version="1.1" viewBox="0 0 525 180" width="525px" xmlns="http://www.w3.org/2000/svg" xmlns:ev="http://www.w3.org/2001/xml-events" xmlns:xlink="http://www.w3.org/1999/xlink"><defs /><g transform="translate(14,14)"><polyline fill="none" points="195.77,36.5 213.77,36.5 213.77,78.5 273.37,78.5" stroke="currentColor" stroke-linejoin="round" stroke-width="1.6" /><line stroke="currentColor" stroke-linecap="round" stroke-width="2.0" x1="202.77" x2="202.77" y1="29.5" y2="43.5" /><line stroke="currentColor" stroke-linecap="round" stroke-width="1.6" x1="273.37" x2="287.77" y1="78.5" y2="70.85" /><line stroke="currentColor" stroke-linecap="round" stroke-width="1.6" x1="273.37" x2="287.77" y1="78.5" y2="78.5" /><line stroke="currentColor" stroke-linecap="round" stroke-width="1.6" x1="273.37" x2="287.77" y1="78.5" y2="86.15" /><rect fill="var(--dl-cell-bg)" height="26" stroke="none" width="195.77" x="0.0" y="0.0" /><rect fill="none" height="152" rx="4" stroke="currentColor" stroke-width="1.3" width="195.77" x="0.0" y="0.0" /><line stroke="currentColor" stroke-width="1.3" x1="0.0" x2="195.77" y1="26.0" y2="26.0" /><text fill="currentColor" font-size="12.5px" font-weight="bold" text-anchor="middle" x="97.885" y="17.0">product_tbl</text><text fill="currentColor" font-family="'SF Mono', 'Cascadia Mono', Menlo, Consolas, monospace" font-size="10.5px" x="10.0" y="40.0">product_id</text><text fill="var(--dl-muted)" font-size="10.0px" text-anchor="end" x="185.77" y="40.0">integer PK</text><line stroke="var(--dl-rule)" stroke-width="0.8" x1="1.0" x2="194.77" y1="47.0" y2="47.0" /><text fill="currentColor" font-family="'SF Mono', 'Cascadia Mono', Menlo, Consolas, monospace" font-size="10.5px" x="10.0" y="61.0">product_name</text><text fill="var(--dl-muted)" font-size="10.0px" text-anchor="end" x="185.77" y="61.0">text</text><line stroke="var(--dl-rule)" stroke-width="0.8" x1="1.0" x2="194.77" y1="68.0" y2="68.0" /><text fill="currentColor" font-family="'SF Mono', 'Cascadia Mono', Menlo, Consolas, monospace" font-size="10.5px" x="10.0" y="82.0">category</text><text fill="var(--dl-muted)" font-size="10.0px" text-anchor="end" x="185.77" y="82.0">text</text><line stroke="var(--dl-rule)" stroke-width="0.8" x1="1.0" x2="194.77" y1="89.0" y2="89.0" /><text fill="currentColor" font-family="'SF Mono', 'Cascadia Mono', Menlo, Consolas, monospace" font-size="10.5px" x="10.0" y="103.0">price</text><text fill="var(--dl-muted)" font-size="10.0px" text-anchor="end" x="185.77" y="103.0">real</text><line stroke="var(--dl-rule)" stroke-width="0.8" x1="1.0" x2="194.77" y1="110.0" y2="110.0" /><text fill="currentColor" font-family="'SF Mono', 'Cascadia Mono', Menlo, Consolas, monospace" font-size="10.5px" x="10.0" y="124.0">stock_quantity</text><text fill="var(--dl-muted)" font-size="10.0px" text-anchor="end" x="185.77" y="124.0">integer</text><line stroke="var(--dl-rule)" stroke-width="0.8" x1="1.0" x2="194.77" y1="131.0" y2="131.0" /><text fill="currentColor" font-family="'SF Mono', 'Cascadia Mono', Menlo, Consolas, monospace" font-size="10.5px" x="10.0" y="145.0">description</text><text fill="var(--dl-muted)" font-size="10.0px" text-anchor="end" x="185.77" y="145.0">text</text><rect fill="var(--dl-cell-bg)" height="26" stroke="none" width="208.79" x="287.77" y="21.0" /><rect fill="none" height="110" rx="4" stroke="currentColor" stroke-width="1.3" width="208.79" x="287.77" y="21.0" /><line stroke="currentColor" stroke-width="1.3" x1="287.77" x2="496.55999999999995" y1="47.0" y2="47.0" /><text fill="currentColor" font-size="12.5px" font-weight="bold" text-anchor="middle" x="392.16499999999996" y="38.0">transaction_tbl</text><text fill="currentColor" font-family="'SF Mono', 'Cascadia Mono', Menlo, Consolas, monospace" font-size="10.5px" x="297.77" y="61.0">transaction_id</text><text fill="var(--dl-muted)" font-size="10.0px" text-anchor="end" x="486.55999999999995" y="61.0">integer PK</text><line stroke="var(--dl-rule)" stroke-width="0.8" x1="288.77" x2="495.55999999999995" y1="68.0" y2="68.0" /><text fill="currentColor" font-family="'SF Mono', 'Cascadia Mono', Menlo, Consolas, monospace" font-size="10.5px" x="297.77" y="82.0">product_id</text><text fill="var(--dl-muted)" font-size="10.0px" text-anchor="end" x="486.55999999999995" y="82.0">integer FK</text><line stroke="var(--dl-rule)" stroke-width="0.8" x1="288.77" x2="495.55999999999995" y1="89.0" y2="89.0" /><text fill="currentColor" font-family="'SF Mono', 'Cascadia Mono', Menlo, Consolas, monospace" font-size="10.5px" x="297.77" y="103.0">customer_name</text><text fill="var(--dl-muted)" font-size="10.0px" text-anchor="end" x="486.55999999999995" y="103.0">text</text><line stroke="var(--dl-rule)" stroke-width="0.8" x1="288.77" x2="495.55999999999995" y1="110.0" y2="110.0" /><text fill="currentColor" font-family="'SF Mono', 'Cascadia Mono', Menlo, Consolas, monospace" font-size="10.5px" x="297.77" y="124.0">quantity</text><text fill="var(--dl-muted)" font-size="10.0px" text-anchor="end" x="486.55999999999995" y="124.0">integer</text></g></svg>