<svg baseProfile="full" fill="currentColor" font-family="'Helvetica Neue', Inter, system-ui, sans-serif" height="302px" version="1.1" viewBox="0 0 764 302" width="764px" xmlns="http://www.w3.org/2000/svg" xmlns:ev="http://www.w3.org/2001/xml-events" xmlns:xlink="http://www.w3.org/1999/xlink"><defs /><g><line stroke="currentColor" stroke-width="1.2" x1="30" x2="734" y1="262" y2="262" /><line stroke="currentColor" stroke-width="1" x1="52" x2="52" y1="262" y2="267" /><text fill="var(--dl-muted)" font-size="10.5px" text-anchor="middle" x="52" y="282">1990</text><line stroke="currentColor" stroke-width="1" x1="162" x2="162" y1="262" y2="267" /><text fill="var(--dl-muted)" font-size="10.5px" text-anchor="middle" x="162" y="282">1995</text><line stroke="currentColor" stroke-width="1" x1="272" x2="272" y1="262" y2="267" /><text fill="var(--dl-muted)" font-size="10.5px" text-anchor="middle" x="272" y="282">2000</text><line stroke="currentColor" stroke-width="1" x1="382" x2="382" y1="262" y2="267" /><text fill="var(--dl-muted)" font-size="10.5px" text-anchor="middle" x="382" y="282">2005</text><line stroke="currentColor" stroke-width="1" x1="492" x2="492" y1="262" y2="267" /><text fill="var(--dl-muted)" font-size="10.5px" text-anchor="middle" x="492" y="282">2010</text><line stroke="currentColor" stroke-width="1" x1="602" x2="602" y1="262" y2="267" /><text fill="var(--dl-muted)" font-size="10.5px" text-anchor="middle" x="602" y="282">2015</text><line stroke="currentColor" stroke-width="1" x1="712" x2="712" y1="262" y2="267" /><text fill="var(--dl-muted)" font-size="10.5px" text-anchor="middle" x="712" y="282">2020</text><text font-size="12px" font-weight="bold" x="20" y="44">HTML</text><line stroke="var(--dl-rule)" stroke-width="2" x1="30" x2="734" y1="78" y2="78" /><circle cx="74" cy="78" fill="currentColor" r="4.5" /><line stroke="var(--dl-muted)" stroke-width="0.8" x1="74" x2="74" y1="78" y2="70" /><text font-size="10.5px" text-anchor="middle" x="74" y="66">first HTML</text><circle cx="162" cy="78" fill="currentColor" r="4.5" /><line stroke="var(--dl-muted)" stroke-width="0.8" x1="162" x2="162" y1="78" y2="88" /><text font-size="10.5px" text-anchor="middle" x="162" y="100">HTML 2.0</text><circle cx="206" cy="78" fill="currentColor" r="4.5" /><line stroke="var(--dl-muted)" stroke-width="0.8" x1="206" x2="206" y1="78" y2="70" /><text font-size="10.5px" text-anchor="middle" x="206" y="66">HTML 3.2</text><circle cx="250" cy="78" fill="currentColor" r="4.5" /><line stroke="var(--dl-muted)" stroke-width="0.8" x1="250" x2="250" y1="78" y2="88" /><text font-size="10.5px" text-anchor="middle" x="250" y="100">HTML 4.01</text><circle cx="360" cy="78" fill="currentColor" r="4.5" /><line stroke="var(--dl-muted)" stroke-width="0.8" x1="360" x2="360" y1="78" y2="70" /><text font-size="10.5px" text-anchor="middle" x="360" y="66">WHATWG starts</text><circle cx="448" cy="78" fill="currentColor" r="4.5" /><line stroke="var(--dl-muted)" stroke-width="0.8" x1="448" x2="448" y1="78" y2="88" /><text font-size="10.5px" text-anchor="middle" x="448" y="100">HTML5 draft</text><circle cx="580" cy="78" fill="currentColor" r="4.5" /><line stroke="var(--dl-muted)" stroke-width="0.8" x1="580" x2="580" y1="78" y2="70" /><text font-size="10.5px" text-anchor="middle" x="580" y="66">HTML5 standard</text><circle cx="690" cy="78" fill="currentColor" r="4.5" /><line stroke="var(--dl-muted)" stroke-width="0.8" x1="690" x2="690" y1="78" y2="88" /><text font-size="10.5px" text-anchor="middle" x="690" y="100">one living standard</text><rect fill="var(--dl-highlight-green)" height="14" rx="7" stroke="none" width="220" x="514" y="183" /><text fill="var(--dl-muted)" font-size="10.5px" text-anchor="middle" x="624" y="178">separate modules</text><text font-size="12px" font-weight="bold" x="20" y="156">CSS</text><line stroke="var(--dl-rule)" stroke-width="2" x1="30" x2="734" y1="190" y2="190" /><circle cx="184" cy="190" fill="currentColor" r="4.5" /><line stroke="var(--dl-muted)" stroke-width="0.8" x1="184" x2="184" y1="190" y2="182" /><text font-size="10.5px" text-anchor="middle" x="184" y="178">CSS1</text><circle cx="228" cy="190" fill="currentColor" r="4.5" /><line stroke="var(--dl-muted)" stroke-width="0.8" x1="228" x2="228" y1="190" y2="200" /><text font-size="10.5px" text-anchor="middle" x="228" y="212">CSS2</text><circle cx="514" cy="190" fill="currentColor" r="4.5" /><line stroke="var(--dl-muted)" stroke-width="0.8" x1="514" x2="514" y1="190" y2="182" /><text font-size="10.5px" text-anchor="middle" x="514" y="178">CSS2.1</text><circle cx="646" cy="190" fill="currentColor" r="4.5" /><line stroke="var(--dl-muted)" stroke-width="0.8" x1="646" x2="646" y1="190" y2="200" /><text font-size="10.5px" text-anchor="middle" x="646" y="212">Grid in every major browser</text></g></svg>