<svg baseProfile="full" fill="currentColor" font-family="'Helvetica Neue', Inter, system-ui, sans-serif" height="250px" version="1.1" viewBox="0 0 680 250" width="680px" xmlns="http://www.w3.org/2000/svg" xmlns:ev="http://www.w3.org/2001/xml-events" xmlns:xlink="http://www.w3.org/1999/xlink"><defs /><line stroke="currentColor" stroke-width="1.2" x1="30" x2="650" y1="190" y2="190" /><line stroke="currentColor" stroke-width="1" x1="30.0" x2="30.0" y1="190" y2="195" /><text fill="currentColor" font-size="11px" text-anchor="middle" x="30.0" y="210">0</text><line stroke="currentColor" stroke-width="1" x1="118.57" x2="118.57" y1="190" y2="195" /><text fill="currentColor" font-size="11px" text-anchor="middle" x="118.57" y="210">500</text><line stroke="currentColor" stroke-width="1" x1="207.14" x2="207.14" y1="190" y2="195" /><text fill="currentColor" font-size="11px" text-anchor="middle" x="207.14" y="210">1,000</text><line stroke="currentColor" stroke-width="1" x1="295.71" x2="295.71" y1="190" y2="195" /><text fill="currentColor" font-size="11px" text-anchor="middle" x="295.71" y="210">1,500</text><line stroke="currentColor" stroke-width="1" x1="384.29" x2="384.29" y1="190" y2="195" /><text fill="currentColor" font-size="11px" text-anchor="middle" x="384.29" y="210">2,000</text><line stroke="currentColor" stroke-width="1" x1="472.86" x2="472.86" y1="190" y2="195" /><text fill="currentColor" font-size="11px" text-anchor="middle" x="472.86" y="210">2,500</text><line stroke="currentColor" stroke-width="1" x1="561.43" x2="561.43" y1="190" y2="195" /><text fill="currentColor" font-size="11px" text-anchor="middle" x="561.43" y="210">3,000</text><line stroke="currentColor" stroke-width="1" x1="650.0" x2="650.0" y1="190" y2="195" /><text fill="currentColor" font-size="11px" text-anchor="middle" x="650.0" y="210">3,500</text><text fill="var(--dl-muted)" font-size="11px" text-anchor="end" x="650" y="228">milliseconds</text><line stroke="currentColor" stroke-dasharray="4,3" stroke-width="1.4" x1="63.66" x2="63.66" y1="40" y2="188" /><line stroke="currentColor" stroke-width="1.4" x1="63.66" x2="85.66" y1="40" y2="40" /><text fill="currentColor" font-size="13px" font-weight="bold" text-anchor="start" x="89.66" y="44">mode 190 ms</text><line stroke="currentColor" stroke-dasharray="4,3" stroke-width="1.4" x1="65.43" x2="65.43" y1="66" y2="188" /><line stroke="currentColor" stroke-width="1.4" x1="65.43" x2="87.43" y1="66" y2="66" /><text fill="currentColor" font-size="13px" font-weight="bold" text-anchor="start" x="91.43" y="70">median 200 ms</text><line stroke="currentColor" stroke-dasharray="4,3" stroke-width="1.4" x1="143.21" x2="143.21" y1="116" y2="188" /><line stroke="currentColor" stroke-width="1.4" x1="143.21" x2="165.21" y1="116" y2="116" /><text fill="currentColor" font-size="13px" font-weight="bold" text-anchor="start" x="169.21" y="120">mean 639.09 ms</text><circle cx="60.11" cy="183" fill="var(--dl-cell-bg)" r="4.5" stroke="currentColor" stroke-width="1.3" /><circle cx="61.89" cy="173.5" fill="var(--dl-cell-bg)" r="4.5" stroke="currentColor" stroke-width="1.3" /><circle cx="63.66" cy="164.0" fill="var(--dl-cell-bg)" r="4.5" stroke="currentColor" stroke-width="1.3" /><circle cx="63.66" cy="154.5" fill="var(--dl-cell-bg)" r="4.5" stroke="currentColor" stroke-width="1.3" /><circle cx="63.66" cy="145.0" fill="var(--dl-cell-bg)" r="4.5" stroke="currentColor" stroke-width="1.3" /><circle cx="65.43" cy="135.5" fill="var(--dl-cell-bg)" r="4.5" stroke="currentColor" stroke-width="1.3" /><circle cx="67.2" cy="126.0" fill="var(--dl-cell-bg)" r="4.5" stroke="currentColor" stroke-width="1.3" /><circle cx="68.97" cy="116.5" fill="var(--dl-cell-bg)" r="4.5" stroke="currentColor" stroke-width="1.3" /><circle cx="70.74" cy="183" fill="var(--dl-cell-bg)" r="4.5" stroke="currentColor" stroke-width="1.3" /><circle cx="357.71" cy="183" fill="var(--dl-cell-bg)" r="4.5" stroke="currentColor" stroke-width="1.3" /><circle cx="632.29" cy="183" fill="var(--dl-cell-bg)" r="4.5" stroke="currentColor" stroke-width="1.3" /><text fill="var(--dl-muted)" font-size="11px" text-anchor="middle" x="357.71" y="168">1,850</text><text fill="var(--dl-muted)" font-size="11px" text-anchor="middle" x="632.29" y="168">3,400</text><line stroke="var(--dl-muted)" stroke-width="1" x1="357.71" x2="632.29" y1="146" y2="146" /><text fill="var(--dl-muted)" font-size="12px" text-anchor="middle" x="495.0" y="138">2 slow loads: the tail</text></svg>